<svg width="1280" height="256" viewBox="0 0 1280 256" xmlns="http://www.w3.org/2000/svg">
  <!-- 图标主体 -->
  <g transform="translate(32, 48)">
    <!-- 外框圆角矩形 -->
    <rect x="0" y="0" width="180" height="180" rx="20" ry="20" fill="none" stroke="DodgerBlue" stroke-width="16" />

    <!-- 表格竖线 -->
    <rect x="32" y="64" width="6" height="96" fill="DodgerBlue" />
    <rect x="64" y="64" width="6" height="96" fill="DodgerBlue" />
    <rect x="96" y="64" width="6" height="96" fill="DodgerBlue" />
    <rect x="128" y="64" width="6" height="96" fill="DodgerBlue" />

    <!-- 横向分隔点 -->
    <rect x="64" y="80" width="4" height="4" fill="DodgerBlue" />
    <rect x="64" y="100" width="4" height="4" fill="DodgerBlue" />
    <rect x="64" y="120" width="4" height="4" fill="DodgerBlue" />
    <rect x="64" y="140" width="4" height="4" fill="DodgerBlue" />

    <rect x="96" y="80" width="4" height="4" fill="DodgerBlue" />
    <rect x="96" y="100" width="4" height="4" fill="DodgerBlue" />
    <rect x="96" y="120" width="4" height="4" fill="DodgerBlue" />
    <rect x="96" y="140" width="4" height="4" fill="DodgerBlue" />

    <!-- 顶部标题栏线条 -->
    <rect x="24" y="24" width="40" height="6" fill="DodgerBlue" />
    <rect x="24" y="36" width="20" height="6" fill="DodgerBlue" />

    <!-- 右上角对勾 -->
    <path d="M136 36 L124 48 L112 36" stroke="DodgerBlue" stroke-width="12" fill="none" />
  </g>

  <!-- 文字 MiqroSheet - 横向排列，与图标垂直居中 -->
  <text x="240" y="160" font-family="Arial, sans-serif" font-size="160" font-weight="bold" fill="DodgerBlue" dominant-baseline="middle">
    MiQroSheet
  </text>
</svg>